<mxfile host="Electron" modified="2023-10-01T14:58:02.617Z" agent="Mozilla/5.0 (Windows NT 10.0; Win64; x64) AppleWebKit/537.36 (KHTML, like Gecko) draw.io/21.8.2 Chrome/114.0.5735.289 Electron/25.8.1 Safari/537.36" etag="ly_1sNVpvCHlqCaKxBAD" version="21.8.2" type="device">
  <diagram id="R2lEEEUBdFMjLlhIrx00" name="Page-1">
    <mxGraphModel dx="800" dy="484" grid="1" gridSize="10" guides="1" tooltips="1" connect="1" arrows="1" fold="1" page="1" pageScale="1" pageWidth="1169" pageHeight="1654" math="0" shadow="0" extFonts="Permanent Marker^https://fonts.googleapis.com/css?family=Permanent+Marker">
      <root>
        <mxCell id="0" />
        <mxCell id="1" parent="0" />
        <mxCell id="BXt3OGdWm3VDRnBnPt4F-21" value="" style="group" vertex="1" connectable="0" parent="1">
          <mxGeometry x="740" y="432" width="160" height="40" as="geometry" />
        </mxCell>
        <mxCell id="BXt3OGdWm3VDRnBnPt4F-3" value="" style="rounded=0;whiteSpace=wrap;html=1;" vertex="1" parent="BXt3OGdWm3VDRnBnPt4F-21">
          <mxGeometry width="160" height="40" as="geometry" />
        </mxCell>
        <mxCell id="BXt3OGdWm3VDRnBnPt4F-13" value="Hospital" style="text;html=1;strokeColor=none;fillColor=none;align=center;verticalAlign=middle;whiteSpace=wrap;rounded=0;" vertex="1" parent="BXt3OGdWm3VDRnBnPt4F-21">
          <mxGeometry x="50" y="5" width="60" height="30" as="geometry" />
        </mxCell>
        <mxCell id="BXt3OGdWm3VDRnBnPt4F-22" value="" style="group" vertex="1" connectable="0" parent="1">
          <mxGeometry x="270" y="432" width="160" height="40" as="geometry" />
        </mxCell>
        <mxCell id="BXt3OGdWm3VDRnBnPt4F-1" value="" style="rounded=0;whiteSpace=wrap;html=1;" vertex="1" parent="BXt3OGdWm3VDRnBnPt4F-22">
          <mxGeometry width="160" height="40" as="geometry" />
        </mxCell>
        <mxCell id="BXt3OGdWm3VDRnBnPt4F-10" value="Patient" style="text;html=1;strokeColor=none;fillColor=none;align=center;verticalAlign=middle;whiteSpace=wrap;rounded=0;" vertex="1" parent="BXt3OGdWm3VDRnBnPt4F-22">
          <mxGeometry x="50" y="5" width="60" height="30" as="geometry" />
        </mxCell>
        <mxCell id="BXt3OGdWm3VDRnBnPt4F-23" value="" style="group" vertex="1" connectable="0" parent="1">
          <mxGeometry x="270" y="787" width="160" height="40" as="geometry" />
        </mxCell>
        <mxCell id="BXt3OGdWm3VDRnBnPt4F-6" value="" style="rounded=0;whiteSpace=wrap;html=1;" vertex="1" parent="BXt3OGdWm3VDRnBnPt4F-23">
          <mxGeometry width="160" height="40" as="geometry" />
        </mxCell>
        <mxCell id="BXt3OGdWm3VDRnBnPt4F-11" value="Record" style="text;html=1;strokeColor=none;fillColor=none;align=center;verticalAlign=middle;whiteSpace=wrap;rounded=0;" vertex="1" parent="BXt3OGdWm3VDRnBnPt4F-23">
          <mxGeometry x="50" y="5" width="60" height="30" as="geometry" />
        </mxCell>
        <mxCell id="BXt3OGdWm3VDRnBnPt4F-24" value="" style="group" vertex="1" connectable="0" parent="1">
          <mxGeometry x="740" y="780" width="160" height="40" as="geometry" />
        </mxCell>
        <mxCell id="BXt3OGdWm3VDRnBnPt4F-7" value="" style="rounded=0;whiteSpace=wrap;html=1;" vertex="1" parent="BXt3OGdWm3VDRnBnPt4F-24">
          <mxGeometry width="160" height="40" as="geometry" />
        </mxCell>
        <mxCell id="BXt3OGdWm3VDRnBnPt4F-12" value="Doctor" style="text;html=1;strokeColor=none;fillColor=none;align=center;verticalAlign=middle;whiteSpace=wrap;rounded=0;" vertex="1" parent="BXt3OGdWm3VDRnBnPt4F-24">
          <mxGeometry x="50" y="5" width="60" height="30" as="geometry" />
        </mxCell>
        <mxCell id="BXt3OGdWm3VDRnBnPt4F-25" value="" style="group" vertex="1" connectable="0" parent="1">
          <mxGeometry x="545" y="412" width="80" height="80" as="geometry" />
        </mxCell>
        <mxCell id="BXt3OGdWm3VDRnBnPt4F-30" value="" style="group" vertex="1" connectable="0" parent="BXt3OGdWm3VDRnBnPt4F-25">
          <mxGeometry width="80" height="80" as="geometry" />
        </mxCell>
        <mxCell id="BXt3OGdWm3VDRnBnPt4F-4" value="" style="rhombus;whiteSpace=wrap;html=1;" vertex="1" parent="BXt3OGdWm3VDRnBnPt4F-30">
          <mxGeometry width="80" height="80" as="geometry" />
        </mxCell>
        <mxCell id="BXt3OGdWm3VDRnBnPt4F-28" value="Admitted&amp;nbsp;&lt;br&gt;to" style="text;html=1;strokeColor=none;fillColor=none;align=center;verticalAlign=middle;whiteSpace=wrap;rounded=0;" vertex="1" parent="BXt3OGdWm3VDRnBnPt4F-30">
          <mxGeometry x="10" y="25" width="60" height="30" as="geometry" />
        </mxCell>
        <mxCell id="BXt3OGdWm3VDRnBnPt4F-26" value="" style="group" vertex="1" connectable="0" parent="1">
          <mxGeometry x="310" y="472" width="80" height="195" as="geometry" />
        </mxCell>
        <mxCell id="BXt3OGdWm3VDRnBnPt4F-5" value="" style="rhombus;whiteSpace=wrap;html=1;" vertex="1" parent="BXt3OGdWm3VDRnBnPt4F-26">
          <mxGeometry y="115" width="80" height="80" as="geometry" />
        </mxCell>
        <mxCell id="BXt3OGdWm3VDRnBnPt4F-14" value="" style="endArrow=none;html=1;rounded=0;exitX=0.5;exitY=0;exitDx=0;exitDy=0;" edge="1" parent="BXt3OGdWm3VDRnBnPt4F-26" source="BXt3OGdWm3VDRnBnPt4F-5">
          <mxGeometry width="50" height="50" relative="1" as="geometry">
            <mxPoint x="40" y="108" as="sourcePoint" />
            <mxPoint x="40" as="targetPoint" />
          </mxGeometry>
        </mxCell>
        <mxCell id="BXt3OGdWm3VDRnBnPt4F-16" value="" style="endArrow=none;html=1;rounded=0;exitX=0.5;exitY=0;exitDx=0;exitDy=0;" edge="1" parent="BXt3OGdWm3VDRnBnPt4F-26" source="BXt3OGdWm3VDRnBnPt4F-6">
          <mxGeometry width="50" height="50" relative="1" as="geometry">
            <mxPoint x="40" y="278" as="sourcePoint" />
            <mxPoint x="39.579999999999984" y="195" as="targetPoint" />
          </mxGeometry>
        </mxCell>
        <mxCell id="BXt3OGdWm3VDRnBnPt4F-31" value="Has" style="text;html=1;strokeColor=none;fillColor=none;align=center;verticalAlign=middle;whiteSpace=wrap;rounded=0;" vertex="1" parent="BXt3OGdWm3VDRnBnPt4F-26">
          <mxGeometry x="10" y="140" width="60" height="30" as="geometry" />
        </mxCell>
        <mxCell id="BXt3OGdWm3VDRnBnPt4F-27" value="" style="group" vertex="1" connectable="0" parent="1">
          <mxGeometry x="780" y="472" width="80" height="185" as="geometry" />
        </mxCell>
        <mxCell id="BXt3OGdWm3VDRnBnPt4F-35" value="" style="group" vertex="1" connectable="0" parent="BXt3OGdWm3VDRnBnPt4F-27">
          <mxGeometry width="80" height="185" as="geometry" />
        </mxCell>
        <mxCell id="BXt3OGdWm3VDRnBnPt4F-8" value="" style="rhombus;whiteSpace=wrap;html=1;" vertex="1" parent="BXt3OGdWm3VDRnBnPt4F-35">
          <mxGeometry y="105" width="80" height="80" as="geometry" />
        </mxCell>
        <mxCell id="BXt3OGdWm3VDRnBnPt4F-17" value="" style="endArrow=none;html=1;rounded=0;exitX=0.5;exitY=0;exitDx=0;exitDy=0;" edge="1" parent="BXt3OGdWm3VDRnBnPt4F-35" source="BXt3OGdWm3VDRnBnPt4F-8">
          <mxGeometry width="50" height="50" relative="1" as="geometry">
            <mxPoint x="50" y="98" as="sourcePoint" />
            <mxPoint x="39.41000000000008" as="targetPoint" />
          </mxGeometry>
        </mxCell>
        <mxCell id="BXt3OGdWm3VDRnBnPt4F-18" value="" style="endArrow=none;html=1;rounded=0;exitX=0.5;exitY=0;exitDx=0;exitDy=0;entryX=0.5;entryY=1;entryDx=0;entryDy=0;" edge="1" parent="BXt3OGdWm3VDRnBnPt4F-35" source="BXt3OGdWm3VDRnBnPt4F-7" target="BXt3OGdWm3VDRnBnPt4F-8">
          <mxGeometry width="50" height="50" relative="1" as="geometry">
            <mxPoint x="820.2900000000001" y="772" as="sourcePoint" />
            <mxPoint x="819.7000000000002" y="667" as="targetPoint" />
          </mxGeometry>
        </mxCell>
        <mxCell id="BXt3OGdWm3VDRnBnPt4F-32" value="Has" style="text;html=1;strokeColor=none;fillColor=none;align=center;verticalAlign=middle;whiteSpace=wrap;rounded=0;" vertex="1" parent="BXt3OGdWm3VDRnBnPt4F-35">
          <mxGeometry x="10" y="130" width="60" height="30" as="geometry" />
        </mxCell>
        <mxCell id="BXt3OGdWm3VDRnBnPt4F-19" value="" style="endArrow=none;html=1;rounded=0;exitX=0;exitY=0.5;exitDx=0;exitDy=0;entryX=1;entryY=0.5;entryDx=0;entryDy=0;" edge="1" parent="1" source="BXt3OGdWm3VDRnBnPt4F-4" target="BXt3OGdWm3VDRnBnPt4F-1">
          <mxGeometry width="50" height="50" relative="1" as="geometry">
            <mxPoint x="460.59" y="555" as="sourcePoint" />
            <mxPoint x="460.00000000000006" y="450" as="targetPoint" />
          </mxGeometry>
        </mxCell>
        <mxCell id="BXt3OGdWm3VDRnBnPt4F-20" value="" style="endArrow=none;html=1;rounded=0;exitX=0;exitY=0.5;exitDx=0;exitDy=0;entryX=1;entryY=0.5;entryDx=0;entryDy=0;" edge="1" parent="1" source="BXt3OGdWm3VDRnBnPt4F-3" target="BXt3OGdWm3VDRnBnPt4F-4">
          <mxGeometry width="50" height="50" relative="1" as="geometry">
            <mxPoint x="625.59" y="555" as="sourcePoint" />
            <mxPoint x="660" y="480" as="targetPoint" />
          </mxGeometry>
        </mxCell>
        <mxCell id="BXt3OGdWm3VDRnBnPt4F-40" value="" style="ellipse;whiteSpace=wrap;html=1;" vertex="1" parent="1">
          <mxGeometry x="670" y="320" width="130" height="30" as="geometry" />
        </mxCell>
        <mxCell id="BXt3OGdWm3VDRnBnPt4F-41" value="" style="ellipse;whiteSpace=wrap;html=1;" vertex="1" parent="1">
          <mxGeometry x="850" y="320" width="130" height="30" as="geometry" />
        </mxCell>
        <mxCell id="BXt3OGdWm3VDRnBnPt4F-42" value="" style="ellipse;whiteSpace=wrap;html=1;" vertex="1" parent="1">
          <mxGeometry x="1000" y="432" width="130" height="30" as="geometry" />
        </mxCell>
        <mxCell id="BXt3OGdWm3VDRnBnPt4F-43" value="" style="ellipse;whiteSpace=wrap;html=1;" vertex="1" parent="1">
          <mxGeometry x="970" y="787" width="130" height="30" as="geometry" />
        </mxCell>
        <mxCell id="BXt3OGdWm3VDRnBnPt4F-44" value="" style="ellipse;whiteSpace=wrap;html=1;" vertex="1" parent="1">
          <mxGeometry x="650" y="920" width="130" height="30" as="geometry" />
        </mxCell>
        <mxCell id="BXt3OGdWm3VDRnBnPt4F-45" value="" style="ellipse;whiteSpace=wrap;html=1;" vertex="1" parent="1">
          <mxGeometry x="870" y="920" width="130" height="30" as="geometry" />
        </mxCell>
        <mxCell id="BXt3OGdWm3VDRnBnPt4F-46" value="" style="ellipse;whiteSpace=wrap;html=1;" vertex="1" parent="1">
          <mxGeometry x="70" y="797" width="130" height="30" as="geometry" />
        </mxCell>
        <mxCell id="BXt3OGdWm3VDRnBnPt4F-47" value="" style="ellipse;whiteSpace=wrap;html=1;" vertex="1" parent="1">
          <mxGeometry x="180" y="920" width="130" height="30" as="geometry" />
        </mxCell>
        <mxCell id="BXt3OGdWm3VDRnBnPt4F-48" value="" style="ellipse;whiteSpace=wrap;html=1;" vertex="1" parent="1">
          <mxGeometry x="370" y="920" width="130" height="30" as="geometry" />
        </mxCell>
        <mxCell id="BXt3OGdWm3VDRnBnPt4F-54" value="hospitalName" style="text;html=1;strokeColor=none;fillColor=none;align=center;verticalAlign=middle;whiteSpace=wrap;rounded=0;" vertex="1" parent="1">
          <mxGeometry x="705" y="320" width="60" height="30" as="geometry" />
        </mxCell>
        <mxCell id="BXt3OGdWm3VDRnBnPt4F-55" value="hospitalAddress" style="text;html=1;strokeColor=none;fillColor=none;align=center;verticalAlign=middle;whiteSpace=wrap;rounded=0;" vertex="1" parent="1">
          <mxGeometry x="885" y="320" width="60" height="30" as="geometry" />
        </mxCell>
        <mxCell id="BXt3OGdWm3VDRnBnPt4F-56" value="hospitalContact" style="text;html=1;strokeColor=none;fillColor=none;align=center;verticalAlign=middle;whiteSpace=wrap;rounded=0;" vertex="1" parent="1">
          <mxGeometry x="1035" y="432" width="60" height="30" as="geometry" />
        </mxCell>
        <mxCell id="BXt3OGdWm3VDRnBnPt4F-57" value="doctorName" style="text;html=1;strokeColor=none;fillColor=none;align=center;verticalAlign=middle;whiteSpace=wrap;rounded=0;" vertex="1" parent="1">
          <mxGeometry x="1005" y="787" width="60" height="30" as="geometry" />
        </mxCell>
        <mxCell id="BXt3OGdWm3VDRnBnPt4F-58" value="doctorId" style="text;html=1;strokeColor=none;fillColor=none;align=center;verticalAlign=middle;whiteSpace=wrap;rounded=0;" vertex="1" parent="1">
          <mxGeometry x="905" y="920" width="60" height="30" as="geometry" />
        </mxCell>
        <mxCell id="BXt3OGdWm3VDRnBnPt4F-59" value="doctorSpeciality" style="text;html=1;strokeColor=none;fillColor=none;align=center;verticalAlign=middle;whiteSpace=wrap;rounded=0;" vertex="1" parent="1">
          <mxGeometry x="685" y="920" width="60" height="30" as="geometry" />
        </mxCell>
        <mxCell id="BXt3OGdWm3VDRnBnPt4F-60" value="" style="ellipse;whiteSpace=wrap;html=1;" vertex="1" parent="1">
          <mxGeometry x="560" y="787" width="130" height="30" as="geometry" />
        </mxCell>
        <mxCell id="BXt3OGdWm3VDRnBnPt4F-61" value="doctorAge" style="text;html=1;strokeColor=none;fillColor=none;align=center;verticalAlign=middle;whiteSpace=wrap;rounded=0;" vertex="1" parent="1">
          <mxGeometry x="590" y="787" width="60" height="30" as="geometry" />
        </mxCell>
        <mxCell id="BXt3OGdWm3VDRnBnPt4F-62" value="recordId" style="text;html=1;strokeColor=none;fillColor=none;align=center;verticalAlign=middle;whiteSpace=wrap;rounded=0;" vertex="1" parent="1">
          <mxGeometry x="405" y="920" width="60" height="30" as="geometry" />
        </mxCell>
        <mxCell id="BXt3OGdWm3VDRnBnPt4F-63" value="dateofExamination" style="text;html=1;strokeColor=none;fillColor=none;align=center;verticalAlign=middle;whiteSpace=wrap;rounded=0;" vertex="1" parent="1">
          <mxGeometry x="210" y="920" width="60" height="30" as="geometry" />
        </mxCell>
        <mxCell id="BXt3OGdWm3VDRnBnPt4F-64" value="Illness" style="text;html=1;strokeColor=none;fillColor=none;align=center;verticalAlign=middle;whiteSpace=wrap;rounded=0;" vertex="1" parent="1">
          <mxGeometry x="100" y="797" width="60" height="30" as="geometry" />
        </mxCell>
        <mxCell id="BXt3OGdWm3VDRnBnPt4F-68" value="" style="endArrow=none;html=1;rounded=0;entryX=0.5;entryY=1;entryDx=0;entryDy=0;" edge="1" parent="1" target="BXt3OGdWm3VDRnBnPt4F-54">
          <mxGeometry width="50" height="50" relative="1" as="geometry">
            <mxPoint x="780" y="430" as="sourcePoint" />
            <mxPoint x="820" y="380" as="targetPoint" />
          </mxGeometry>
        </mxCell>
        <mxCell id="BXt3OGdWm3VDRnBnPt4F-69" value="" style="endArrow=none;html=1;rounded=0;entryX=0.5;entryY=1;entryDx=0;entryDy=0;" edge="1" parent="1" target="BXt3OGdWm3VDRnBnPt4F-55">
          <mxGeometry width="50" height="50" relative="1" as="geometry">
            <mxPoint x="850" y="430" as="sourcePoint" />
            <mxPoint x="900" y="380" as="targetPoint" />
          </mxGeometry>
        </mxCell>
        <mxCell id="BXt3OGdWm3VDRnBnPt4F-70" value="" style="endArrow=none;html=1;rounded=0;exitX=1;exitY=0.5;exitDx=0;exitDy=0;entryX=0;entryY=0.5;entryDx=0;entryDy=0;" edge="1" parent="1" source="BXt3OGdWm3VDRnBnPt4F-3" target="BXt3OGdWm3VDRnBnPt4F-42">
          <mxGeometry width="50" height="50" relative="1" as="geometry">
            <mxPoint x="900" y="460" as="sourcePoint" />
            <mxPoint x="1000" y="440" as="targetPoint" />
          </mxGeometry>
        </mxCell>
        <mxCell id="BXt3OGdWm3VDRnBnPt4F-71" value="" style="endArrow=none;html=1;rounded=0;entryX=0.146;entryY=1.022;entryDx=0;entryDy=0;entryPerimeter=0;" edge="1" parent="1" target="BXt3OGdWm3VDRnBnPt4F-7">
          <mxGeometry width="50" height="50" relative="1" as="geometry">
            <mxPoint x="710" y="920" as="sourcePoint" />
            <mxPoint x="761" y="823" as="targetPoint" />
          </mxGeometry>
        </mxCell>
        <mxCell id="BXt3OGdWm3VDRnBnPt4F-72" value="" style="endArrow=none;html=1;rounded=0;entryX=0.697;entryY=1.008;entryDx=0;entryDy=0;entryPerimeter=0;exitX=0.25;exitY=0;exitDx=0;exitDy=0;" edge="1" parent="1" source="BXt3OGdWm3VDRnBnPt4F-58" target="BXt3OGdWm3VDRnBnPt4F-7">
          <mxGeometry width="50" height="50" relative="1" as="geometry">
            <mxPoint x="840" y="900" as="sourcePoint" />
            <mxPoint x="890" y="850" as="targetPoint" />
          </mxGeometry>
        </mxCell>
        <mxCell id="BXt3OGdWm3VDRnBnPt4F-74" value="" style="endArrow=none;html=1;rounded=0;entryX=0;entryY=0.5;entryDx=0;entryDy=0;exitX=1.002;exitY=0.664;exitDx=0;exitDy=0;exitPerimeter=0;" edge="1" parent="1" source="BXt3OGdWm3VDRnBnPt4F-7" target="BXt3OGdWm3VDRnBnPt4F-43">
          <mxGeometry width="50" height="50" relative="1" as="geometry">
            <mxPoint x="930" y="880" as="sourcePoint" />
            <mxPoint x="980" y="830" as="targetPoint" />
          </mxGeometry>
        </mxCell>
        <mxCell id="BXt3OGdWm3VDRnBnPt4F-75" value="" style="endArrow=none;html=1;rounded=0;entryX=-0.004;entryY=0.63;entryDx=0;entryDy=0;entryPerimeter=0;exitX=1;exitY=0.5;exitDx=0;exitDy=0;" edge="1" parent="1" source="BXt3OGdWm3VDRnBnPt4F-60" target="BXt3OGdWm3VDRnBnPt4F-7">
          <mxGeometry width="50" height="50" relative="1" as="geometry">
            <mxPoint x="680" y="860" as="sourcePoint" />
            <mxPoint x="730" y="810" as="targetPoint" />
          </mxGeometry>
        </mxCell>
        <mxCell id="BXt3OGdWm3VDRnBnPt4F-76" value="" style="endArrow=none;html=1;rounded=0;entryX=0;entryY=0.5;entryDx=0;entryDy=0;exitX=1;exitY=0.5;exitDx=0;exitDy=0;" edge="1" parent="1" source="BXt3OGdWm3VDRnBnPt4F-46" target="BXt3OGdWm3VDRnBnPt4F-6">
          <mxGeometry width="50" height="50" relative="1" as="geometry">
            <mxPoint x="190" y="880" as="sourcePoint" />
            <mxPoint x="240" y="830" as="targetPoint" />
          </mxGeometry>
        </mxCell>
        <mxCell id="BXt3OGdWm3VDRnBnPt4F-77" value="" style="endArrow=none;html=1;rounded=0;entryX=0.5;entryY=1;entryDx=0;entryDy=0;exitX=0.667;exitY=0;exitDx=0;exitDy=0;exitPerimeter=0;" edge="1" parent="1" source="BXt3OGdWm3VDRnBnPt4F-63" target="BXt3OGdWm3VDRnBnPt4F-6">
          <mxGeometry width="50" height="50" relative="1" as="geometry">
            <mxPoint x="250" y="900" as="sourcePoint" />
            <mxPoint x="300" y="850" as="targetPoint" />
          </mxGeometry>
        </mxCell>
        <mxCell id="BXt3OGdWm3VDRnBnPt4F-78" value="" style="endArrow=none;html=1;rounded=0;entryX=0.5;entryY=1;entryDx=0;entryDy=0;exitX=0.199;exitY=0.051;exitDx=0;exitDy=0;exitPerimeter=0;" edge="1" parent="1" source="BXt3OGdWm3VDRnBnPt4F-48" target="BXt3OGdWm3VDRnBnPt4F-6">
          <mxGeometry width="50" height="50" relative="1" as="geometry">
            <mxPoint x="350" y="910" as="sourcePoint" />
            <mxPoint x="400" y="840" as="targetPoint" />
          </mxGeometry>
        </mxCell>
        <mxCell id="BXt3OGdWm3VDRnBnPt4F-79" value="" style="group" vertex="1" connectable="0" parent="1">
          <mxGeometry x="30" y="442" width="130" height="30" as="geometry" />
        </mxCell>
        <mxCell id="BXt3OGdWm3VDRnBnPt4F-38" value="" style="ellipse;whiteSpace=wrap;html=1;" vertex="1" parent="BXt3OGdWm3VDRnBnPt4F-79">
          <mxGeometry width="130" height="30" as="geometry" />
        </mxCell>
        <mxCell id="BXt3OGdWm3VDRnBnPt4F-51" value="patientId" style="text;html=1;strokeColor=none;fillColor=none;align=center;verticalAlign=middle;whiteSpace=wrap;rounded=0;" vertex="1" parent="BXt3OGdWm3VDRnBnPt4F-79">
          <mxGeometry x="35" y="-2" width="60" height="30" as="geometry" />
        </mxCell>
        <mxCell id="BXt3OGdWm3VDRnBnPt4F-92" value="" style="endArrow=none;html=1;rounded=0;" edge="1" parent="BXt3OGdWm3VDRnBnPt4F-79">
          <mxGeometry width="50" height="50" relative="1" as="geometry">
            <mxPoint x="42.5" y="18" as="sourcePoint" />
            <mxPoint x="87.5" y="18" as="targetPoint" />
          </mxGeometry>
        </mxCell>
        <mxCell id="BXt3OGdWm3VDRnBnPt4F-80" value="" style="group" vertex="1" connectable="0" parent="1">
          <mxGeometry x="360" y="324" width="185" height="108" as="geometry" />
        </mxCell>
        <mxCell id="BXt3OGdWm3VDRnBnPt4F-37" value="" style="ellipse;whiteSpace=wrap;html=1;" vertex="1" parent="BXt3OGdWm3VDRnBnPt4F-80">
          <mxGeometry x="24.666666666666668" width="160.33333333333334" height="29.454545454545453" as="geometry" />
        </mxCell>
        <mxCell id="BXt3OGdWm3VDRnBnPt4F-53" value="patientAddress" style="text;html=1;strokeColor=none;fillColor=none;align=center;verticalAlign=middle;whiteSpace=wrap;rounded=0;" vertex="1" parent="BXt3OGdWm3VDRnBnPt4F-80">
          <mxGeometry x="67.83333333333334" width="74" height="29.454545454545453" as="geometry" />
        </mxCell>
        <mxCell id="BXt3OGdWm3VDRnBnPt4F-67" value="" style="endArrow=none;html=1;rounded=0;entryX=0.5;entryY=1;entryDx=0;entryDy=0;" edge="1" parent="BXt3OGdWm3VDRnBnPt4F-80" target="BXt3OGdWm3VDRnBnPt4F-53">
          <mxGeometry width="50" height="50" relative="1" as="geometry">
            <mxPoint y="108" as="sourcePoint" />
            <mxPoint x="49.333333333333336" y="49.09090909090909" as="targetPoint" />
          </mxGeometry>
        </mxCell>
        <mxCell id="BXt3OGdWm3VDRnBnPt4F-81" value="" style="group" vertex="1" connectable="0" parent="1">
          <mxGeometry x="190" y="310" width="130" height="30" as="geometry" />
        </mxCell>
        <mxCell id="BXt3OGdWm3VDRnBnPt4F-39" value="" style="ellipse;whiteSpace=wrap;html=1;" vertex="1" parent="BXt3OGdWm3VDRnBnPt4F-81">
          <mxGeometry width="130" height="30" as="geometry" />
        </mxCell>
        <mxCell id="BXt3OGdWm3VDRnBnPt4F-52" value="patientName" style="text;html=1;strokeColor=none;fillColor=none;align=center;verticalAlign=middle;whiteSpace=wrap;rounded=0;" vertex="1" parent="BXt3OGdWm3VDRnBnPt4F-81">
          <mxGeometry x="30" width="60" height="30" as="geometry" />
        </mxCell>
        <mxCell id="BXt3OGdWm3VDRnBnPt4F-66" value="" style="endArrow=none;html=1;rounded=0;exitX=0.5;exitY=1;exitDx=0;exitDy=0;" edge="1" parent="BXt3OGdWm3VDRnBnPt4F-81" source="BXt3OGdWm3VDRnBnPt4F-52">
          <mxGeometry width="50" height="50" relative="1" as="geometry">
            <mxPoint x="120" y="92" as="sourcePoint" />
            <mxPoint x="120" y="120" as="targetPoint" />
          </mxGeometry>
        </mxCell>
        <mxCell id="BXt3OGdWm3VDRnBnPt4F-65" value="" style="endArrow=none;html=1;rounded=0;exitX=0.751;exitY=0.944;exitDx=0;exitDy=0;exitPerimeter=0;entryX=0;entryY=0.5;entryDx=0;entryDy=0;" edge="1" parent="1" source="BXt3OGdWm3VDRnBnPt4F-38" target="BXt3OGdWm3VDRnBnPt4F-1">
          <mxGeometry width="50" height="50" relative="1" as="geometry">
            <mxPoint x="250" y="345" as="sourcePoint" />
            <mxPoint x="310" y="430" as="targetPoint" />
          </mxGeometry>
        </mxCell>
        <mxCell id="BXt3OGdWm3VDRnBnPt4F-90" value="" style="endArrow=none;html=1;rounded=0;" edge="1" parent="1">
          <mxGeometry width="50" height="50" relative="1" as="geometry">
            <mxPoint x="412.5" y="940" as="sourcePoint" />
            <mxPoint x="457.5" y="940" as="targetPoint" />
          </mxGeometry>
        </mxCell>
        <mxCell id="BXt3OGdWm3VDRnBnPt4F-93" value="" style="ellipse;whiteSpace=wrap;html=1;" vertex="1" parent="1">
          <mxGeometry x="990" y="520" width="130" height="30" as="geometry" />
        </mxCell>
        <mxCell id="BXt3OGdWm3VDRnBnPt4F-94" value="hospitalId" style="text;html=1;strokeColor=none;fillColor=none;align=center;verticalAlign=middle;whiteSpace=wrap;rounded=0;" vertex="1" parent="1">
          <mxGeometry x="1025" y="520" width="60" height="30" as="geometry" />
        </mxCell>
        <mxCell id="BXt3OGdWm3VDRnBnPt4F-95" value="" style="endArrow=none;html=1;rounded=0;exitX=1;exitY=1;exitDx=0;exitDy=0;entryX=0;entryY=0.333;entryDx=0;entryDy=0;entryPerimeter=0;" edge="1" parent="1" source="BXt3OGdWm3VDRnBnPt4F-3" target="BXt3OGdWm3VDRnBnPt4F-93">
          <mxGeometry width="50" height="50" relative="1" as="geometry">
            <mxPoint x="880" y="505" as="sourcePoint" />
            <mxPoint x="980" y="500" as="targetPoint" />
          </mxGeometry>
        </mxCell>
        <mxCell id="BXt3OGdWm3VDRnBnPt4F-97" value="" style="endArrow=none;html=1;rounded=0;" edge="1" parent="1">
          <mxGeometry width="50" height="50" relative="1" as="geometry">
            <mxPoint x="1027.5" y="540" as="sourcePoint" />
            <mxPoint x="1082.5" y="540" as="targetPoint" />
          </mxGeometry>
        </mxCell>
        <mxCell id="BXt3OGdWm3VDRnBnPt4F-98" value="" style="endArrow=none;html=1;rounded=0;" edge="1" parent="1">
          <mxGeometry width="50" height="50" relative="1" as="geometry">
            <mxPoint x="907.5" y="940" as="sourcePoint" />
            <mxPoint x="962.5" y="940" as="targetPoint" />
          </mxGeometry>
        </mxCell>
      </root>
    </mxGraphModel>
  </diagram>
</mxfile>
